<svg xmlns="http://www.w3.org/2000/svg" viewBox="0 0 48 48"><defs><linearGradient id="g" x1="0" y1="48" x2="48" y2="0"><stop stop-color="#ffcc00"/><stop offset=".45" stop-color="#ff2b78"/><stop offset="1" stop-color="#7a35ff"/></linearGradient></defs><circle cx="24" cy="24" r="24" fill="url(#g)"/><path fill="#fff" d="M30.5 13h-13a4.5 4.5 0 0 0-4.5 4.5v13a4.5 4.5 0 0 0 4.5 4.5h13a4.5 4.5 0 0 0 4.5-4.5v-13a4.5 4.5 0 0 0-4.5-4.5zM24 29.7a5.7 5.7 0 1 1 0-11.4 5.7 5.7 0 0 1 0 11.4zm6.3-10.3a1.7 1.7 0 1 1 0-3.4 1.7 1.7 0 0 1 0 3.4zM24 20.4a3.6 3.6 0 1 0 0 7.2 3.6 3.6 0 0 0 0-7.2z"/></svg>