<svg xmlns="http://www.w3.org/2000/svg" viewBox="0 0 48 48"><circle cx="24" cy="24" r="24" fill="#20c463"/><path fill="#fff" d="M34.6 28.6c-.5-.3-3-1.5-3.5-1.7-.5-.2-.9-.3-1.2.3-.4.5-1.4 1.7-1.7 2.1-.3.4-.6.4-1.1.1-.5-.3-2.2-.8-4.2-2.6-1.5-1.4-2.6-3.1-2.9-3.6-.3-.5 0-.8.2-1.1.2-.2.5-.6.8-.9.3-.3.4-.5.6-.9.2-.4.1-.7 0-1-.1-.3-1.2-2.9-1.7-4-.4-1.1-.9-.9-1.2-.9h-1c-.4 0-1 .1-1.5.7-.5.5-2 1.9-2 4.7s2 5.4 2.3 5.8c.3.4 4 6.1 9.7 8.5 1.4.6 2.4.9 3.2 1.2 1.4.4 2.6.4 3.6.2 1.1-.2 3-1.2 3.5-2.4.4-1.2.4-2.2.3-2.4-.2-.4-.6-.5-1.1-.8z"/><path fill="#fff" d="M24 7C14.6 7 7 14.6 7 24c0 3 .8 5.8 2.2 8.2L7 41l9-2.2c2.4 1.3 5.1 2 8 2 9.4 0 17-7.6 17-17S33.4 7 24 7zm0 30.9c-2.6 0-5-.7-7.1-2l-.5-.3-5.3 1.3 1.4-5.1-.3-.5c-1.4-2.2-2.1-4.8-2.1-7.4 0-7.7 6.3-13.9 13.9-13.9S37.9 16.3 37.9 24 31.7 37.9 24 37.9z"/></svg>